<?xml version="1.0" encoding="UTF-8"?>
<svg xmlns="http://www.w3.org/2000/svg" version="1.1" viewBox="0 0 60 60">
  <defs>
    <style>
      .cls-1 {
        fill: #e54f38;
      }
    </style>
  </defs>
  <!-- Generator: Adobe Illustrator 28.6.0, SVG Export Plug-In . SVG Version: 1.2.0 Build 709)  -->
  <g>
    <g id="Layer_1">
      <g>
        <path class="cls-1" d="M39.9.3c0,.3,0,.5,0,.8,0,3.4,0,6.9,0,10.3,0,2.6,1.7,4.3,4.3,4.3,3.5,0,7,0,10.6,0,.2,0,.4,0,.7,0,0,.3,0,.5,0,.7,0,12.2,0,24.3,0,36.5,0,3.3-1.9,5.9-5,6.6-.6.1-1.1.2-1.7.2-12.5,0-25,0-37.4,0-4,0-6.8-2.8-6.8-6.8,0-15.3,0-30.5,0-45.8,0-3.5,2.1-6.1,5.5-6.7.4,0,.9,0,1.3,0,9.3,0,18.7,0,28,0,.2,0,.4,0,.6,0ZM29.8,27.9c-3.3,0-6.5,0-9.8,0-.9,0-1.7,0-2.6,0-1.2,0-2,1.4-1.4,2.5.4.7,1,1,1.8,1,8,0,16.1,0,24.1,0,.1,0,.2,0,.4,0,.7,0,1.3-.6,1.5-1.3.3-1.2-.5-2.2-1.8-2.2-4,0-8.1,0-12.1,0ZM28.8,41.8c-3.6,0-7.2,0-10.7,0-.3,0-.6,0-.9,0-.8.2-1.4.9-1.4,1.7,0,.8.6,1.5,1.5,1.7.3,0,.6,0,.9,0,7.1,0,14.1,0,21.2,0,.3,0,.6,0,.9,0,.7-.1,1.3-.7,1.4-1.4.2-1.2-.6-2-2-2-3.6,0-7.2,0-10.9,0ZM27.5,38.3h0c3.3,0,6.7,0,10,0,1,0,1.7-.7,1.7-1.7,0-1-.7-1.7-1.7-1.8-.2,0-.4,0-.6,0-5.3,0-10.7,0-16,0-1.1,0-2.2,0-3.3,0-.9,0-1.6.5-1.8,1.3-.3,1.2.5,2.2,1.8,2.2,3.3,0,6.5,0,9.8,0Z"/>
        <path class="cls-1" d="M54.5,12.2h-.7c-3.1,0-6.3,0-9.4,0-.8,0-.9-.1-.9-.9,0-3.1,0-6.3,0-9.4v-.6c3.7,3.7,7.3,7.2,11.1,10.9Z"/>
      </g>
    </g>
  </g>
</svg>